<svg width="31" height="31" viewBox="0 0 31 31" xmlns="http://www.w3.org/2000/svg">
  <path d="M14.2085 24.5417V11.625H5.16683V24.5417H14.2085ZM14.2085 9.04167V5.16667C14.2085 4.8241 14.3446 4.49555 14.5868 4.25332C14.829 4.01109 15.1576 3.875 15.5002 3.875H27.1252C27.4677 3.875 27.7963 4.01109 28.0385 4.25332C28.2807 4.49555 28.4168 4.8241 28.4168 5.16667V25.8333C28.4168 26.1759 28.2807 26.5044 28.0385 26.7467C27.7963 26.9889 27.4677 27.125 27.1252 27.125H3.87516C3.53259 27.125 3.20405 26.9889 2.96182 26.7467C2.71958 26.5044 2.5835 26.1759 2.5835 25.8333V10.3333C2.5835 9.99076 2.71958 9.66222 2.96182 9.41999C3.20405 9.17775 3.53259 9.04167 3.87516 9.04167H14.2085ZM16.7918 6.45833V24.5417H25.8335V6.45833H16.7918ZM6.45849 20.6667H12.9168V23.25H6.45849V20.6667ZM18.0835 20.6667H24.5418V23.25H18.0835V20.6667ZM18.0835 16.7917H24.5418V19.375H18.0835V16.7917ZM18.0835 12.9167H24.5418V15.5H18.0835V12.9167ZM6.45849 16.7917H12.9168V19.375H6.45849V16.7917Z"/>
</svg>