<svg width="29" height="29" viewBox="0 0 29 29" xmlns="http://www.w3.org/2000/svg">
  <path d="M25.375 11.4792V15.1042C25.375 18.1069 20.5054 20.5417 14.5 20.5417C8.49458 20.5417 3.625 18.1069 3.625 15.1042V11.4792C3.625 14.4819 8.49458 16.9167 14.5 16.9167C20.5054 16.9167 25.375 14.4819 25.375 11.4792ZM3.625 17.5208C3.625 20.5235 8.49458 22.9583 14.5 22.9583C20.5054 22.9583 25.375 20.5235 25.375 17.5208V21.1458C25.375 24.1485 20.5054 26.5833 14.5 26.5833C8.49458 26.5833 3.625 24.1485 3.625 21.1458V17.5208ZM14.5 14.5C8.49458 14.5 3.625 12.0652 3.625 9.0625C3.625 6.05979 8.49458 3.625 14.5 3.625C20.5054 3.625 25.375 6.05979 25.375 9.0625C25.375 12.0652 20.5054 14.5 14.5 14.5Z"/>
</svg>