<svg width="35" height="35" viewBox="0 0 25 25" fill="none" xmlns="http://www.w3.org/2000/svg">
<path d="M7.63889 9.16656H8.75M8.75 9.16656H17.6389M8.75 9.16656V16.9443C8.75 17.239 8.86706 17.5216 9.07543 17.73C9.28381 17.9384 9.56642 18.0554 9.86111 18.0554H15.4167C15.7113 18.0554 15.994 17.9384 16.2023 17.73C16.4107 17.5216 16.5278 17.239 16.5278 16.9443V9.16656M10.4167 9.16656V8.05545C10.4167 7.76076 10.5337 7.47815 10.7421 7.26977C10.9505 7.0614 11.2331 6.94434 11.5278 6.94434H13.75C14.0447 6.94434 14.3273 7.0614 14.5357 7.26977C14.744 7.47815 14.8611 7.76076 14.8611 8.05545V9.16656M11.5278 11.9443V15.2777M13.75 11.9443V15.2777" stroke-width="1.5" stroke-linecap="round" stroke-linejoin="round"/>
</svg>
