<svg width="24" height="24" viewBox="0 0 21 21" xmlns="http://www.w3.org/2000/svg">
  <path d="M2.76573 3.91046C3.78079 2.89522 5.14223 2.30141 6.57688 2.24818C8.01152 2.19495 9.41323 2.68623 10.5007 3.62346C11.5873 2.68779 12.9871 2.19706 14.42 2.2495C15.853 2.30194 17.2132 2.89368 18.2284 3.90626C19.2437 4.91884 19.839 6.27753 19.8952 7.71031C19.9514 9.14309 19.4643 10.5442 18.5315 11.6332L11.7371 18.4495C11.4249 18.7617 11.0063 18.9445 10.5651 18.961C10.1238 18.9776 9.69266 18.8267 9.35798 18.5387L9.26173 18.4503L2.46823 11.6332C1.53591 10.5452 1.04861 9.14532 1.10377 7.71354C1.15892 6.28176 1.75247 4.92355 2.76573 3.91046ZM4.00298 5.14771C3.28744 5.86345 2.87498 6.82722 2.85119 7.83901C2.8274 8.85079 3.19412 9.83288 3.87523 10.5815L4.00298 10.7162L10.4999 17.2131L15.14 12.5721L12.0469 9.47896L11.1194 10.4065C10.8756 10.6503 10.5863 10.8437 10.2678 10.9757C9.94933 11.1077 9.60797 11.1757 9.26322 11.1758C8.56697 11.176 7.89917 10.8995 7.40673 10.4073C6.91429 9.91512 6.63755 9.24745 6.63738 8.5512C6.63722 7.85495 6.91365 7.18715 7.40585 6.69471L9.2451 4.85458C8.51314 4.27041 7.59696 3.96619 6.66095 3.99649C5.72495 4.0268 4.83037 4.38966 4.13773 5.01996L4.00298 5.14771ZM11.4282 7.62221C11.5923 7.45817 11.8148 7.36602 12.0469 7.36602C12.2789 7.36602 12.5014 7.45817 12.6655 7.62221L16.3772 11.334L16.9967 10.7162C17.7243 9.9892 18.1384 9.00639 18.1507 7.97795C18.163 6.94951 17.7724 5.9571 17.0624 5.21294C16.3524 4.46879 15.3794 4.03197 14.3516 3.9959C13.3237 3.95984 12.3225 4.32739 11.5621 5.01996L11.4282 5.14771L8.64398 7.93196C8.49232 8.08352 8.40158 8.28549 8.389 8.49954C8.37642 8.71358 8.44287 8.9248 8.57573 9.09308L8.64398 9.16921C8.79554 9.32087 8.99752 9.4116 9.21156 9.42419C9.4256 9.43677 9.63682 9.37032 9.80511 9.23746L9.88123 9.16921L11.4282 7.62221Z"/>
</svg>