<svg width="25" height="26" viewBox="0 0 25 26" xmlns="http://www.w3.org/2000/svg">
  <path d="M4.16663 19.5H6.24996V21.6666H18.75V4.33329H6.24996V6.49996H4.16663V3.24996C4.16663 2.96264 4.27637 2.68709 4.47172 2.48393C4.66707 2.28076 4.93203 2.16663 5.20829 2.16663H19.7916C20.0679 2.16663 20.3328 2.28076 20.5282 2.48393C20.7235 2.68709 20.8333 2.96264 20.8333 3.24996V22.75C20.8333 23.0373 20.7235 23.3128 20.5282 23.516C20.3328 23.7192 20.0679 23.8333 19.7916 23.8333H5.20829C4.93203 23.8333 4.66707 23.7192 4.47172 23.516C4.27637 23.3128 4.16663 23.0373 4.16663 22.75V19.5ZM6.24996 11.9166H13.5416V14.0833H6.24996V17.3333L1.04163 13L6.24996 8.66663V11.9166Z"/>
</svg>