<svg width="34" height="34" viewBox="0 0 34 34" xmlns="http://www.w3.org/2000/svg">
  <path d="M5.66667 4.25H28.3333C28.7091 4.25 29.0694 4.39926 29.3351 4.66493C29.6007 4.93061 29.75 5.29094 29.75 5.66667V15.5833H4.25V5.66667C4.25 5.29094 4.39926 4.93061 4.66493 4.66493C4.93061 4.39926 5.29094 4.25 5.66667 4.25ZM4.25 18.4167H29.75V28.3333C29.75 28.7091 29.6007 29.0694 29.3351 29.3351C29.0694 29.6007 28.7091 29.75 28.3333 29.75H5.66667C5.29094 29.75 4.93061 29.6007 4.66493 29.3351C4.39926 29.0694 4.25 28.7091 4.25 28.3333V18.4167ZM9.91667 22.6667V25.5H14.1667V22.6667H9.91667ZM9.91667 8.5V11.3333H14.1667V8.5H9.91667Z"/>
</svg>