<svg width="21" height="26" viewBox="0 0 21 26" xmlns="http://www.w3.org/2000/svg">
  <path d="M18.3043 19.5062C18.7191 19.5062 19.0288 19.34 19.2164 19.0914C19.3371 18.9316 19.4136 18.7385 19.4413 18.5331C19.4699 18.3188 19.4455 18.0906 19.363 17.8689C19.205 17.4411 18.8235 17.0465 18.1796 16.8364C17.4485 16.5976 16.8771 16.2023 16.4445 15.6008C16.0329 15.0287 15.7647 14.287 15.6198 13.3285C15.561 12.9438 15.5628 12.4231 15.5645 11.815C15.5726 9.321 15.5864 5.1383 10.3494 5.1383C5.11241 5.1383 5.12615 9.32017 5.13439 11.815C5.13686 12.4229 5.13856 12.9439 5.07906 13.3285C4.9339 14.287 4.66576 15.0287 4.25436 15.6008C3.82249 16.203 3.25113 16.5976 2.51928 16.8364C1.87538 17.0467 1.49408 17.442 1.33583 17.8689C1.25359 18.0907 1.22914 18.3188 1.25757 18.5331C1.28448 18.7385 1.36103 18.9316 1.4825 19.0914C1.66992 19.34 1.97975 19.5062 2.39458 19.5062H18.305H18.3043ZM13.1184 21.9301C13.1991 21.596 13.5364 21.3898 13.8707 21.4713C14.2057 21.5521 14.411 21.8894 14.3295 22.2237C14.1094 23.1323 13.5878 23.9214 12.8779 24.4797C12.1801 25.0273 11.3024 25.3542 10.3481 25.3542C9.39453 25.3542 8.51598 25.0273 7.81828 24.4797C7.1084 23.9222 6.58671 23.1325 6.3667 22.2237C6.28597 21.8886 6.49139 21.5521 6.82548 21.4713C7.15957 21.3906 7.49708 21.596 7.57781 21.9301C7.73016 22.5593 8.09363 23.1078 8.5901 23.4975C9.07333 23.8772 9.6839 24.1039 10.3481 24.1039C11.0123 24.1039 11.6228 23.8772 12.1061 23.4975C12.6023 23.1079 12.9658 22.5595 13.1184 21.9301ZM7.41141 4.34065V2.9372C7.41141 2.1288 7.74227 1.39448 8.27361 0.862203C8.80574 0.330075 9.54021 0 10.3486 0C11.157 0 11.8913 0.330109 12.4236 0.862203C12.9557 1.39433 13.2858 2.1288 13.2858 2.9372V4.34065C16.8295 5.6317 16.8173 9.39269 16.81 11.8144C16.8083 12.3581 16.8067 12.8242 16.8556 13.142C16.9714 13.905 17.167 14.4704 17.4564 14.8724C17.7237 15.2447 18.0897 15.4926 18.5665 15.6482C19.617 15.9913 20.256 16.68 20.5363 17.438C20.6879 17.8488 20.7318 18.2815 20.678 18.694C20.6227 19.1145 20.4645 19.5123 20.2143 19.8439C19.801 20.3901 19.1507 20.7567 18.3055 20.7567H2.39502C1.54984 20.7567 0.899493 20.39 0.486171 19.8439C0.236034 19.513 0.0777977 19.1153 0.022465 18.694C-0.0321109 18.2817 0.0118526 17.8489 0.164212 17.438C0.44448 16.6792 1.08346 15.9906 2.13404 15.6482C2.61082 15.4926 2.97596 15.244 3.24414 14.8724C3.5335 14.4697 3.72831 13.905 3.84486 13.142C3.89375 12.8242 3.89205 12.3581 3.89053 11.8144C3.88238 9.39298 3.87101 5.63156 7.41468 4.34065H7.41141ZM12.035 4.01794V2.93724C12.035 2.47429 11.8452 2.05301 11.5395 1.74642C11.2338 1.44075 10.8116 1.25087 10.3487 1.25087C9.88495 1.25087 9.46351 1.44075 9.15784 1.74642C8.85217 2.05284 8.66229 2.47429 8.66229 2.93724V4.01794C9.16846 3.93323 9.72916 3.88756 10.3485 3.88756C10.9687 3.88756 11.5287 3.93323 12.0346 4.01794H12.035Z"/>
</svg>