<svg width="30" height="30" viewBox="0 0 30 30" xmlns="http://www.w3.org/2000/svg">
  <path d="M8.75049 21.2497H21.2505V27.4997H8.75049V21.2497ZM23.7505 24.9997V18.7497H6.25049V24.9997H3.75049C3.41897 24.9997 3.10103 24.868 2.8666 24.6336C2.63218 24.3992 2.50049 24.0812 2.50049 23.7497V11.2497C2.50049 10.9182 2.63218 10.6002 2.8666 10.3658C3.10103 10.1314 3.41897 9.99969 3.75049 9.99969H26.2505C26.582 9.99969 26.9 10.1314 27.1344 10.3658C27.3688 10.6002 27.5005 10.9182 27.5005 11.2497V23.7497C27.5005 24.0812 27.3688 24.3992 27.1344 24.6336C26.9 24.868 26.582 24.9997 26.2505 24.9997H23.7505ZM6.25049 12.4997V14.9997H10.0005V12.4997H6.25049ZM8.75049 2.49969H21.2505C21.582 2.49969 21.9 2.63139 22.1344 2.86581C22.3688 3.10023 22.5005 3.41817 22.5005 3.74969V7.49969H7.50049V3.74969C7.50049 3.41817 7.63218 3.10023 7.86661 2.86581C8.10103 2.63139 8.41897 2.49969 8.75049 2.49969Z"/>
</svg>