<svg width="19" height="19" viewBox="0 0 19 19" fill="none" xmlns="http://www.w3.org/2000/svg">
  <path d="M14.2746 13.155L17.6653 16.5449L16.5451 17.6651L13.1552 14.2744C11.8938 15.2855 10.325 15.8355 8.70838 15.8332C4.77537 15.8332 1.58337 12.6412 1.58337 8.70819C1.58337 4.77519 4.77537 1.58319 8.70838 1.58319C12.6414 1.58319 15.8334 4.77519 15.8334 8.70819C15.8357 10.3248 15.2857 11.8937 14.2746 13.155ZM12.6865 12.5676C13.6912 11.5344 14.2523 10.1494 14.25 8.70819C14.25 5.64602 11.7698 3.16652 8.70838 3.16652C5.64621 3.16652 3.16671 5.64602 3.16671 8.70819C3.16671 11.7696 5.64621 14.2499 8.70838 14.2499C10.1495 14.2521 11.5345 13.691 12.5678 12.6863L12.6865 12.5676Z"/>
</svg>