<svg width="35" height="35" viewBox="0 0 25 25" fill="none" xmlns="http://www.w3.org/2000/svg">
<path d="M11.9143 8.11574H8.04885C7.75595 8.11574 7.47503 8.2321 7.26792 8.43922C7.0608 8.64633 6.94444 8.92725 6.94444 9.22015V16.951C6.94444 17.2439 7.0608 17.5249 7.26792 17.732C7.47503 17.9391 7.75595 18.0554 8.04885 18.0554H15.7797C16.0726 18.0554 16.3536 17.9391 16.5607 17.732C16.7678 17.5249 16.8841 17.2439 16.8841 16.951V13.0856M16.0558 7.28743C16.2755 7.06775 16.5735 6.94434 16.8841 6.94434C17.1948 6.94434 17.4928 7.06775 17.7125 7.28743C17.9321 7.50711 18.0556 7.80507 18.0556 8.11574C18.0556 8.42642 17.9321 8.72437 17.7125 8.94405L12.4665 14.19L10.2577 14.7422L10.8099 12.5334L16.0558 7.28743Z" stroke-width="1.5" stroke-linecap="round" stroke-linejoin="round"/>
</svg>
