<svg width="24" height="24" viewBox="0 0 19 19" xmlns="http://www.w3.org/2000/svg">
  <path d="M16.625 6.33335C17.045 6.33335 17.4477 6.50017 17.7446 6.7971C18.0416 7.09404 18.2084 7.49676 18.2084 7.91669V11.0834C18.2084 11.5033 18.0416 11.906 17.7446 12.2029C17.4477 12.4999 17.045 12.6667 16.625 12.6667H15.7843C15.5913 14.1972 14.8464 15.6047 13.6894 16.625C12.5323 17.6453 11.0427 18.2083 9.50005 18.2084V16.625C10.7598 16.625 11.968 16.1246 12.8588 15.2338C13.7496 14.343 14.25 13.1348 14.25 11.875V7.12502C14.25 5.86524 13.7496 4.65706 12.8588 3.76627C11.968 2.87547 10.7598 2.37502 9.50005 2.37502C8.24027 2.37502 7.03209 2.87547 6.14129 3.76627C5.2505 4.65706 4.75005 5.86524 4.75005 7.12502V12.6667H2.37505C1.95512 12.6667 1.5524 12.4999 1.25547 12.2029C0.958533 11.906 0.791718 11.5033 0.791718 11.0834V7.91669C0.791718 7.49676 0.958533 7.09404 1.25547 6.7971C1.5524 6.50017 1.95512 6.33335 2.37505 6.33335H3.2158C3.40899 4.80298 4.15399 3.3957 5.311 2.37556C6.46802 1.35542 7.95753 0.792542 9.50005 0.792542C11.0426 0.792542 12.5321 1.35542 13.6891 2.37556C14.8461 3.3957 15.5911 4.80298 15.7843 6.33335H16.625ZM6.14338 12.4965L6.98255 11.1538C7.73707 11.6265 8.60971 11.8765 9.50005 11.875C10.3904 11.8765 11.263 11.6265 12.0175 11.1538L12.8567 12.4965C11.8507 13.1268 10.6872 13.4602 9.50005 13.4584C8.31291 13.4602 7.14939 13.1268 6.14338 12.4965Z"/>
</svg>