<svg width="29" height="29" viewBox="0 0 29 29" xmlns="http://www.w3.org/2000/svg">
  <path d="M25.3751 3.625C25.6956 3.625 26.0029 3.75231 26.2295 3.97891C26.4561 4.20552 26.5834 4.51286 26.5834 4.83333V11.4792C25.7822 11.4792 25.0139 11.7974 24.4474 12.3639C23.8808 12.9305 23.5626 13.6988 23.5626 14.5C23.5626 15.3012 23.8808 16.0695 24.4474 16.6361C25.0139 17.2026 25.7822 17.5208 26.5834 17.5208V24.1667C26.5834 24.4871 26.4561 24.7945 26.2295 25.0211C26.0029 25.2477 25.6956 25.375 25.3751 25.375H3.62508C3.30461 25.375 2.99727 25.2477 2.77066 25.0211C2.54405 24.7945 2.41675 24.4871 2.41675 24.1667V17.5208C3.21792 17.5208 3.98628 17.2026 4.5528 16.6361C5.11932 16.0695 5.43758 15.3012 5.43758 14.5C5.43758 13.6988 5.11932 12.9305 4.5528 12.3639C3.98628 11.7974 3.21792 11.4792 2.41675 11.4792V4.83333C2.41675 4.51286 2.54405 4.20552 2.77066 3.97891C2.99727 3.75231 3.30461 3.625 3.62508 3.625H25.3751ZM19.3334 10.875H9.66675V18.125H19.3334V10.875Z"/>
</svg>