<svg width="26" height="26" viewBox="0 0 26 26" xmlns="http://www.w3.org/2000/svg">
  <path d="M13.0001 2.16656C18.9801 2.16656 23.8334 7.0199 23.8334 12.9999C23.8334 18.9799 18.9801 23.8332 13.0001 23.8332C7.02008 23.8332 2.16675 18.9799 2.16675 12.9999C2.16675 7.0199 7.02008 2.16656 13.0001 2.16656ZM6.525 16.7006C8.11533 19.0731 10.503 20.5832 13.1734 20.5832C15.8427 20.5832 18.2315 19.0741 19.8207 16.7006C18.0178 15.0155 15.6412 14.0798 13.1734 14.0832C10.7053 14.0795 8.32822 15.0153 6.525 16.7006ZM13.0001 11.9166C13.862 11.9166 14.6887 11.5742 15.2982 10.9647C15.9077 10.3552 16.2501 9.52852 16.2501 8.66656C16.2501 7.80461 15.9077 6.97796 15.2982 6.36847C14.6887 5.75897 13.862 5.41656 13.0001 5.41656C12.1381 5.41656 11.3115 5.75897 10.702 6.36847C10.0925 6.97796 9.75008 7.80461 9.75008 8.66656C9.75008 9.52852 10.0925 10.3552 10.702 10.9647C11.3115 11.5742 12.1381 11.9166 13.0001 11.9166Z"/>
</svg>